<?xml version="1.0" encoding="utf-8"?>
<!-- Generator: Adobe Illustrator 17.1.0, SVG Export Plug-In . SVG Version: 6.00 Build 0)  -->
<!DOCTYPE svg PUBLIC "-//W3C//DTD SVG 1.1//EN" "http://www.w3.org/Graphics/SVG/1.1/DTD/svg11.dtd">
<svg version="1.1" id="Layer_1" xmlns="http://www.w3.org/2000/svg" xmlns:xlink="http://www.w3.org/1999/xlink" x="0px" y="0px"
	 viewBox="0 0 24.7 24.7" enable-background="new 0 0 24.7 24.7" xml:space="preserve">
<g>
	<path id="XMLID_21_" fill="#6282C1" d="M24.7,12.3c0,6.8-5.5,12.3-12.3,12.3C5.5,24.7,0,19.1,0,12.3C0,5.5,5.5,0,12.3,0
		C19.1,0,24.7,5.5,24.7,12.3z"/>
	<path id="XMLID_19_" fill="#FFFFFF" d="M13.4,9.4V8.3c0-0.6,0.4-0.7,0.6-0.7c0.3,0,1.6,0,1.6,0V5.1l-2.3,0c-2.5,0-3.1,1.9-3.1,3.1
		v1.3H8.9v1.8v1.2h1.5c0,3.3,0,7.3,0,7.3h2.9c0,0,0-4,0-7.3h2.2l0.1-1.1l0.2-1.8H13.4z"/>
</g>
</svg>
