<?xml version="1.0" encoding="utf-8"?>
<!-- Generator: Adobe Illustrator 17.1.0, SVG Export Plug-In . SVG Version: 6.00 Build 0)  -->
<!DOCTYPE svg PUBLIC "-//W3C//DTD SVG 1.1//EN" "http://www.w3.org/Graphics/SVG/1.1/DTD/svg11.dtd">
<svg version="1.1" id="Layer_1" xmlns="http://www.w3.org/2000/svg" xmlns:xlink="http://www.w3.org/1999/xlink" x="0px" y="0px"
	 viewBox="0 0 24.7 24.7" enable-background="new 0 0 24.7 24.7" xml:space="preserve">
<g>
	<path id="XMLID_115_" fill="#874D2E" d="M24.7,12.3c0,6.8-5.5,12.3-12.3,12.3C5.5,24.7,0,19.1,0,12.3C0,5.5,5.5,0,12.3,0
		C19.1,0,24.7,5.5,24.7,12.3z"/>
	<path fill="#FFFFFF" d="M16.8,5h-9C6.3,5,5,6.3,5,7.8v3v1.1v4.9c0,1.6,1.3,2.8,2.8,2.8h9c1.6,0,2.8-1.3,2.8-2.8v-4.9v-1.1v-3
		C19.6,6.3,18.4,5,16.8,5z M17.6,6.7h0.3V7v2.1l-2.5,0l0-2.5L17.6,6.7z M10.2,10.8c0.5-0.6,1.2-1.1,2.1-1.1c0.9,0,1.6,0.4,2.1,1.1
		c0.1,0.1,0.1,0.2,0.2,0.2c0.2,0.4,0.3,0.8,0.3,1.3c0,1.4-1.2,2.6-2.6,2.6c-1.4,0-2.6-1.2-2.6-2.6c0-0.5,0.1-0.9,0.3-1.3
		C10.1,11,10.2,10.9,10.2,10.8z M18.2,16.8c0,0.8-0.6,1.4-1.4,1.4h-9c-0.8,0-1.4-0.6-1.4-1.4v-5.2v-0.8h2.2
		c-0.1,0.1-0.1,0.3-0.1,0.4c-0.1,0.3-0.2,0.7-0.2,1.1c0,2.2,1.8,4,4,4c2.2,0,4-1.8,4-4c0-0.4-0.1-0.7-0.2-1.1c0-0.1-0.1-0.3-0.1-0.4
		h2.2v0.8V16.8z"/>
</g>
</svg>
