<?xml version="1.0" encoding="utf-8"?>
<!-- Generator: Adobe Illustrator 17.1.0, SVG Export Plug-In . SVG Version: 6.00 Build 0)  -->
<!DOCTYPE svg PUBLIC "-//W3C//DTD SVG 1.1//EN" "http://www.w3.org/Graphics/SVG/1.1/DTD/svg11.dtd">
<svg version="1.1" id="Layer_1" xmlns="http://www.w3.org/2000/svg" xmlns:xlink="http://www.w3.org/1999/xlink" x="0px" y="0px"
	 viewBox="0 0 83.3 100.8" enable-background="new 0 0 83.3 100.8" xml:space="preserve">
<g>
	<path fill-rule="evenodd" clip-rule="evenodd" fill="#D7D3CC" d="M22.7,100C14,98.5,6.9,92.6,2.2,83.2C-6.2,66.6,10.3-0.1,41.7,0
		C73,0.1,89.5,66.6,81.2,83.2c-4.8,9.5-12.1,14.9-20.9,16.8c-1.1,0.2-2.2,0.4-3.3,0.5C52.4,101,28.2,101,22.7,100z"/>
	<g>
		<path fill-rule="evenodd" clip-rule="evenodd" fill="#FEFDF5" d="M22.8,42.9c0.3-0.2,0.7-0.5,1.1-0.7c-0.8-1.5-1.1-4.1-0.2-5.5
			c0.6-1.3,1.5-2.2,2.9-2.7c-0.3-0.9-0.5-1.6-0.4-2.6c0.5-2.5,2.2-3.7,4.4-4.5c-0.1-1.5,0-2.8,0.7-3.9c0.4-0.6,2-2.7,3.8-2.2
			c-0.8-2.9-0.5-4.8-0.1-6.4c0.4-1.8,1.3-2.7,2.5-3.6c5.5-3.8,12.1,0.3,10.6,7.3l0,0.1L46.9,21c0,0,1.6,0.3,2,1
			c0.9,1,1.2,2.7,1.1,4.2c0.4,0.1,1.2,0.4,1.8,0.7l-0.1-0.1c2.4,1.5,3,3.9,2.3,6.4c3.8,0.9,5.9,5.2,4,8.9c0.2,0.1,0.5,0.3,1.1,0.8
			c0.6,0.6,1.1,1,1.4,1.5c0,0,0,0,0.2,0.3c0.3,0.6,0.5,1.3,0.6,2.4c0.1,1.4-0.1,2.2-0.7,3.2c2.4,2.4,2.9,6.3,0.9,9.2
			c-0.9,1.3-1.9,1.9-3.2,2.1c0.6,1.4,0.6,2.7-0.1,4.2c-0.2,0.4-0.4,0.8-0.7,1.1c-0.6,0.6-1.5,1.1-2.4,1.5c-0.9,0.4-2.6,0.3-3.2,0.2
			c-0.9,3.2-4,4.7-7,3.9c-1.3-0.5-1.3-0.2-1.5-0.1c-1.5,1.2-3,2-6.4,1.1c-1.6-0.5-2.2-1.3-2.8-2.4c-3.3,1.2-6.9,0-8.4-3.3
			c-0.8-1.7-1-2.8-0.5-4.4c-1.2-0.7-1.8-1.1-2.7-2.3c-1.7-2.4-1.7-6.5,0.3-8.8c-1.1-1-1.7-2.3-1.8-3.7
			C20.1,45.3,22.8,42.9,22.8,42.9z"/>
		<path fill="#D7D3CC" d="M41.7,57.5c7.2-0.4,0.8-16.1-1.2-20.4C37.9,42.8,33.2,58,41.7,57.5z"/>
		<g>
			<path fill="#D7D3CC" d="M49.7,41.3c0-0.1-0.2-0.5-0.2-0.5c-2.1-4.8-4.9-9.2-6.9-11.9c-0.8-1.1-1.4-1.8-2.3-2.7
				C34,32.6,28.7,45,29.8,54.2c0,0.4,0.1,0.8,0.2,1.1c1.5,8.1,7.3,10,14.6,8.2C55.2,60.9,53.6,50.5,49.7,41.3z M42.7,62.3
				C34.9,63.4,31.9,59,31.6,53c-0.4-7.9,3.9-18.6,7.8-23.2c0-0.1,0.1-0.2,0.1-0.2c0.3-0.4,0.9-0.4,1.3-0.1l0.6,0.7l0.8,1.2
				c1.6,2.4,3.8,6.2,5.6,10.4l0.2,0.5C51.7,51,53.1,60.9,42.7,62.3z"/>
			<path fill="#D7D3CC" d="M36.1,58.1l-0.9,0.6c0.6,0.6,1.2,1,1.9,1.4l0.6-1.1l0.3-0.6c-0.4-0.3-0.8-0.6-1.1-0.9L36.1,58.1z"/>
			<path fill="#D7D3CC" d="M41.4,59.2l0.2,0.7l0.1,0.9c0.5,0,0.9-0.1,1.4-0.2c-0.3-0.5-0.5-1-0.7-1.5C42.1,59.2,41.7,59.2,41.4,59.2
				z"/>
			<path fill="#D7D3CC" d="M39.2,58.9c-0.4,0.9-0.3,0.6-0.9,1.7c0.7,0.2,1.3,0.3,2,0.3c0-1,0-0.7,0-1.7C39.9,59.1,39.6,59,39.2,58.9
				z"/>
			<path fill="#D7D3CC" d="M43.8,58.7c0.2,0.5,0.5,1,0.8,1.5c0.2-0.1,0.4-0.2,0.6-0.2c0.5-0.2,0.9-0.4,1.3-0.7
				c-0.5-0.5-0.8-0.8-1.5-1.3C44.6,58.2,44.2,58.5,43.8,58.7z"/>
			<path fill="#D7D3CC" d="M45.7,56.8c0.7,0.3,1.3,0.9,1.9,1.4c0.4-0.5,0.7-1.1,1-1.7c-1.4-0.3-0.9-0.2-2.5-0.6
				C46,56.2,45.8,56.5,45.7,56.8z"/>
			<path fill="#D7D3CC" d="M46.4,53c0,0.5,0,1-0.1,1.5c1.7,0.3,1.1,0.2,2.6,0.5c0.1-0.7,0.2-1.4,0.2-2.2C47.4,53.1,48,53,46.4,53z"
				/>
			<path fill="#D7D3CC" d="M46.4,51.7c0.6-0.1,1.7-0.2,2.6-0.2c-0.1-0.7-0.2-1.5-0.4-2.3c-0.9,0.1-1.6,0.3-2.5,0.3
				C46.3,50.2,46.4,51,46.4,51.7z"/>
			<path fill="#D7D3CC" d="M45.9,48.3c0.8-0.2,1.6-0.4,2.3-0.5c-0.2-0.7-0.4-1.4-0.6-2c-0.7,0.4-1.7,0.7-2.1,0.9
				C45.7,47.2,45.8,47.7,45.9,48.3z"/>
			<path fill="#D7D3CC" d="M45.2,45.5c0.7-0.4,1.3-0.6,2-1c-0.3-0.7-0.5-1.4-0.8-2.1c-0.7,0.3-1.2,0.6-1.7,1.1
				C44.8,44.1,45.1,44.8,45.2,45.5z"/>
			<path fill="#D7D3CC" d="M45.8,41.2c-0.3-0.7-0.6-1.3-0.9-1.9c-0.4,0.5-0.9,1-1.3,1.4l0.1,0.3c0.1,0.4,0.3,0.8,0.5,1.3
				C44.8,41.9,45.2,41.6,45.8,41.2z"/>
			<path fill="#D7D3CC" d="M43.1,39.2c0.4-0.4,0.8-0.7,1.2-1.1c-0.4-0.7-0.7-1.4-1.1-2c-0.3,0.3-0.7,0.8-1,1.1
				C42.5,37.8,42.8,38.5,43.1,39.2z"/>
			<path fill="#D7D3CC" d="M42.5,35c-0.7-1.1-1.3-2.1-1.9-2.9c0.2,1.1,0.4,1.8,0.6,3c0,0.1,0.1,0.2,0.1,0.3c0.1,0.2,0.2,0.5,0.4,0.7
				C41.9,35.6,42.2,35.3,42.5,35z"/>
			<path fill="#D7D3CC" d="M39.7,35.3c-0.1-0.8-0.4-2.1-0.4-3.2c-0.6,1-1.3,2.1-1.9,3.2c0.5,0.4,1.1,0.8,1.6,1.2
				C39.3,36.1,39.5,35.7,39.7,35.3z"/>
			<path fill="#D7D3CC" d="M38.5,37.8l-1.6-1.3c-0.3,0.6-0.6,1.3-0.9,2c0.8,0.3,1,0.5,1.9,0.8C38.2,38.7,38.4,38.2,38.5,37.8z"/>
			<path fill="#D7D3CC" d="M37.6,40.4c-0.7-0.2-1.3-0.5-2-0.8c-0.2,0.6-0.4,1.2-0.6,1.8c0.7,0.2,1.4,0.4,2,0.7
				C37.2,41.5,37.4,41,37.6,40.4z"/>
			<path fill="#D7D3CC" d="M36.2,45.1c0.1-0.6,0.3-1.2,0.4-1.7c-0.7-0.3-1.4-0.5-2.1-0.8c-0.2,0.7-0.4,1.3-0.5,2l1,0.3L36.2,45.1z"
				/>
			<path fill="#D7D3CC" d="M35.9,46.3c-1.4-0.3-1-0.2-2.2-0.6c-0.1,0.7-0.3,1.3-0.4,2c0.8,0.1,1.5,0.2,2.2,0.4
				C35.7,47.5,35.8,46.9,35.9,46.3z"/>
			<path fill="#D7D3CC" d="M35.3,52.2l-0.3,0c-0.9-0.1-1.2,0-1.9,0.1c0,0.7,0.1,1.4,0.2,2.1c0.9-0.1,1.3-0.2,2.2-0.3
				C35.4,53.5,35.4,52.9,35.3,52.2z"/>
			<path fill="#D7D3CC" d="M35.3,50.9c0-0.5,0-1,0.1-1.5c-0.7-0.2-1.4-0.4-2.2-0.5c-0.1,0.7-0.1,1.4-0.2,2.1
				C33.9,50.8,34.6,50.7,35.3,50.9z"/>
			<path fill="#D7D3CC" d="M35.8,55c-1,0.3-1.3,0.4-2.2,0.5c0.1,0.3,0.2,0.7,0.3,1c0.2,0.4,0.3,0.8,0.6,1.2c1.1-0.8,0.7-0.6,1.9-1.3
				C36.1,56,35.9,55.5,35.8,55z"/>
		</g>
		<path fill="#D7D3CC" d="M53.5,34.8l-0.2,0 M22.8,55.1c-0.1,0.6-0.2,1.1-0.2,1.7c0,1.8,0.8,3.6,2.4,4.6l0.7,0.4
			c0.3,0.1,0.4,0.3,0.5,0.6c0,0.2,0,1.1,0,1.3c-0.3,1.5,0.7,4.4,3.4,5.5c1.4,0.6,2.5,0.5,3.8,0c0.4-0.2,1-0.1,1.2,0.4
			c0,0.1,0.4,0.5,0.5,0.7c1.3,1.4,2.2,2,4.5,1.6c1.8-0.3,1.8-0.9,3.1-1.8c0.3-0.2,0.6-0.1,0.8,0.1l0.1,0.1c2.3,1.2,4.7,0.8,6.2-1.4
			c0.3-0.5,0.4-0.8,0.4-1.4c0-0.4,0.4-0.7,0.8-0.7c0.1,0,0.1,0,0.2,0c0.1,0,0.2,0,0.3,0.1c3.1,0.7,6.3-1.9,5.1-4.8l-0.3-0.7
			c-0.1-0.1-0.1-0.2-0.1-0.3c0-0.1,0-0.1,0-0.2c0-0.4,0.3-0.8,0.7-0.8c1.8-0.5,2.9-1.1,3.5-3c0.7-2.4,0.1-4.4-1.5-6.1
			c-0.1,0-0.1-0.1-0.2-0.1c-0.3-0.3-0.3-0.8,0-1.1c1-1.2,1.1-2,0.7-3.6c-0.5-2-1.5-2.3-2.9-3.3c-0.1,0-0.1-0.1-0.2-0.1
			c-0.4-0.3-0.5-0.8-0.2-1.2c1.5-2.5,0.2-5.7-2.5-6.7c-0.1,0-0.6-0.2-0.7-0.2c-1.8-0.6-0.3-1-0.4-3.2c-0.1-4.7-4.5-3-4.2-5
			c0.3-1.6-0.2-4.3-2.3-4c-0.2,0-0.3,0-0.4,0c-0.1,0-0.2,0-0.2-0.1c-0.4-0.2-0.6-0.7-0.5-1.1l0-0.1c0.8-1.6,1.2-2.4,1.4-4.4
			c0.6-5.1-4.4-7.4-8.3-4.7c-2.6,1.7-2.6,6.1-1.7,8.7c0.2,0.3,0.1,0.7-0.2,0.9c-0.2,0.1-0.4,0.1-0.5,0c-1.6,0.6-2.8,0.8-3.5,2.9
			c-0.9,2.4,0.7,3.4-0.7,3.9c-1.7,0.6-3.2,1-3.8,3c-0.4,1.1-0.1,1.7,0.4,2.7l0,0.1c0.1,0.1,0.2,0.3,0.2,0.4c0,0.4-0.3,0.8-0.7,0.8
			c-2.3,0.7-3.6,3.1-2.8,5.5c0.2,0.5,0.5,0.8,0.7,1.2c0.1,0.2,0.1,0.3,0.1,0.5c0,0.3-0.2,0.6-0.5,0.6c-3.4,1.2-4,6.1-1.2,8.3
			c0.2,0.2,0.4,0.4,0.3,0.7c0,0.1-0.2,0.4-0.4,0.7C23.7,53.1,23,54.1,22.8,55.1z M50.9,36.4c1.9-0.1,3.3,0.6,3.8,3.3
			c0.3,1.7-0.4,2.8-1.4,3.9c1.3-0.1,2.4,0.2,3.4,1.6c1.4,2.1,0.7,4.5-1.1,6l0.4,0.2c4.9,2.5,2.5,8.6-1.7,8.3c1.5,2.2,1.3,5.3-2,5.8
			c-1.3,0.2-2.2,0-3.1-0.5c0.1,1.6-0.2,3.4-1.8,4c-2,0.7-4,0-4.8-1.8c-0.1,0.6-0.4,1.3-0.7,1.7c-2.3,3.2-6.5,1-6.7-2.4
			c-2.1,2.1-5.6,1.3-6.5-1.2c-0.6-1.7-0.6-3.3,0.3-4.6h0c-3.8-0.1-5.6-2.9-3.9-6.2c0.3-0.7,0.7-1.2,1.2-1.7c0.3-0.3,0.6-0.5,1-0.7
			c-1.7-0.7-3.2-2.1-3.1-4c0.1-2.7,1.4-4.4,3.7-4.8c-1.4-1.2-2-3.2-1-5.1c0.9-1.8,2.3-2.2,3.9-2.2c-2.8-2.7,0.2-7.5,3.4-7
			c-1.1-1.7-0.7-4.6,1.6-5.4c1.5-0.6,2.2-0.3,3.2,0.1c-1.3-3.2-2.2-8,0.7-10.2c2.6-2,6.8-0.4,5.9,4.1c-0.5,2.4-1.4,4.2-2.7,6
			c1.6-0.8,3.2-0.7,4.1,1.3c0.6,1.4,0.3,2.7-0.4,3.9c1.1-0.3,2.2-0.3,3.3,0.8c1.9,1.8,1.9,4.7,0.4,6.8
			C50.3,36.4,50.6,36.4,50.9,36.4"/>
		<g>
			<path fill="#D7D3CC" d="M29.5,58.9c-0.7-1.6-1.1-3.5-1.2-5.4l0,0c-1.2,0.9-2.4,2.2-2.2,3.9C26.3,59,28.2,59,29.5,58.9z"/>
			<path fill="#D7D3CC" d="M28.2,50.7c0.1-1.9,0.3-4,0.8-6c-2.2,0.4-3.1,1.1-3.3,3.5C25.6,49.6,27,50.5,28.2,50.7z"/>
			<path fill="#D7D3CC" d="M40.5,14.9c-2.1,1.7-1,6.3-0.1,8.8c1.7-2,2.8-2.8,3.5-6.3C44.4,14.6,42,13.7,40.5,14.9z"/>
			<path fill="#D7D3CC" d="M39,25.4c-1.1-0.3-1.8-0.9-3.3,0c-1.1,0.7-0.9,2.8-0.1,3.7l0.2,0.3C36.8,27.9,37.8,26.6,39,25.4z"/>
			<path fill="#D7D3CC" d="M34.8,30.8c-2.2-1.4-5.3,2.4-2.9,4.2c0.3,0.2,0.4,0.2,0.4,0.3C33,33.7,33.9,32.2,34.8,30.8z"/>
			<path fill="#D7D3CC" d="M31.3,37.5c-1.4,0-2.9,0.3-3.4,1.9c-0.5,1.5,0.3,2.8,1.6,3.4C30,41,30.6,39.2,31.3,37.5z"/>
			<path fill="#D7D3CC" d="M41.9,25.5c0.9,1,1.8,2.1,2.7,3.3c0.2-0.5,1.3-1.3,1-2.8C45.2,23.8,43.3,24.8,41.9,25.5z"/>
			<path fill="#D7D3CC" d="M49.2,31.6c-0.8-1.7-2.1-1.5-3.3-1.1c1,1.6,2,3.3,2.8,4.9C49.4,34.4,49.7,32.8,49.2,31.6z"/>
			<path fill="#D7D3CC" d="M53.2,40.3c0-2.4-1.5-2.7-3.3-2.5L50,38c0.7,1.5,1.4,3.1,2,4.7C52.7,42.1,53.2,41.3,53.2,40.3z"/>
			<path fill="#D7D3CC" d="M55.6,46.9c-0.2-1.4-1.6-2.1-2.9-2c0.6,1.8,1,3.6,1.2,5.4C55.2,49.4,55.8,48.4,55.6,46.9z"/>
			<path fill="#D7D3CC" d="M57,55.7c0.3-1.9-1.2-2.7-2.8-3.1c0.1,2-0.1,3.8-0.7,5.5C55.1,58,56.8,57.6,57,55.7z"/>
			<path fill="#D7D3CC" d="M52.8,63.6c1.3-0.6,0.7-2.7-0.2-3.6c-0.7,1.3-1.7,2.4-3.1,3.3C50.6,63.8,51.6,64.2,52.8,63.6z"/>
			<path fill="#D7D3CC" d="M39.7,68.6c1.1-0.5,1.2-1.7,1.4-2.9c-0.3,0-0.6,0-1,0c-1.3,0-2.5-0.1-3.5-0.4
				C36.5,67.2,37.6,69.7,39.7,68.6z"/>
			<path fill="#D7D3CC" d="M30.2,64.8c0.5,1.5,3.1,1.8,4.3-0.2c-1.6-0.8-2.8-2-3.8-3.4C29.9,62.3,29.7,63.4,30.2,64.8z"/>
			<path fill="#D7D3CC" d="M43.2,65.5c0.8,1.4,1.6,2.9,3.6,2.1c1.2-0.5,0.8-2.3,0.7-3.2C46.3,64.9,44.9,65.3,43.2,65.5z"/>
		</g>
	</g>
	<g>
		<path fill="#FEFDF5" d="M24.7,83c-0.3-0.6-2.2,0.7-3.2,1.1c-1.1,0.5-4.5,1.3-2.8-1.7c1.7-3,3.4-4.8,4-5.8c1-1.1,0.1-2.3-1.2-1.6
			c-0.3,0.2-0.4-0.4-0.9-1c-0.6-0.6-1.5-1.2-2.4-1.4c-1.7-0.2-3.5-0.1-5,1.3c-1.5,1.4-3.9,4.8-2.8,6.6c1.1,1.8,2.8,2.7,4.5,2.3
			c1.7-0.5,2-0.7,2.1-0.5c0.1,0.2-0.8,1.7-0.1,2.6c0.6,0.9,2.6,2.2,5.5,0.4C25.1,83.5,25,83.6,24.7,83z M15.6,81.2
			c-1.6,0.6-2.6,0-3.6-1.3c-0.6-1.6,1.7-3.9,3.9-5.1c2.1-1.2,4.3,1,4.3,1.7C20.3,77.7,17.2,80.7,15.6,81.2z"/>
		<path fill="#FEFDF5" d="M26.4,85.3c0.7,0,3-3.9,3.5-4.5c0.3-0.4,0.5-0.2,1,0.2c0.4,0.3,0.8,0.4,0.5,0.7c-0.2,0.2-3,3.6-2.9,6.4
			c0.1,1.7,1,2.7,2.1,3.1c1.2,0.4,3.6,0.8,5.9-1.9c0.5-0.6,1.3-1.3,1.5-1.9c0.4-1.1-0.3-1.6-1-1c-1.3,1.2-2.3,3.5-3.9,3.4
			c-1.6,0-3.5-0.3-2.3-3.5c1-2.5,1.7-3.3,2.4-4c0.7-0.7,1.6-2,0.1-2.4C31.9,80,31,80,30.9,78.9c-0.1-1.2-1.3-2-1.8-0.7
			c-0.2,0.5-0.3,1.3-0.7,2.1c-0.8,1.5-2,3.1-2.4,3.7C25.4,84.8,26.2,85.2,26.4,85.3z"/>
		<g>
			<path fill="#FEFDF5" d="M41.1,80.4c-0.4-0.1-1.5,0.2-1.7,5.1c-0.2,3.3-0.4,5.9,1.9,6.7c1.2,0.2,2.6-0.1,3.5-0.9
				c0.9-0.9,2.3-3,2.7-4.3c0.1-0.7-0.6-1.5-1.1-0.6c-0.5,0.9-1.1,1.9-2.1,3.3c-1.3,1.6-2.8,1.1-3.1,0.1c-0.5-1.5,0.3-6.4,0.6-7.4
				C41.9,81.3,41.9,80.6,41.1,80.4z"/>
			<path fill="#FEFDF5" d="M41.4,79.1c1.5,0.2,2-2.2,0.3-2.4C39.6,76.6,39.9,78.9,41.4,79.1z"/>
		</g>
		<path fill="#FEFDF5" d="M48.7,80c0.2,0.2,0.3,0.6,0.4,1.1c0.2,1.4,0.3,1.5,0.8,0.3c0.4-1.2,2.3-3.2,3.9-2.9c1.5,0.3,2.1,1,2.4,2.4
			c0.2,1.4,0.4,4.8,0.7,5.9c0.3,0.9,1.8,1.2,2.6-0.4c0.8-1.7,0.9-3.8,1.4-4.1c0.5-0.3,1.1-0.1,1.1,0.6c0,0.8-0.6,2.7-1.1,3.8
			c-0.5,1.3-2.1,3.1-3.9,2.5c-1.6-0.5-1.9-2.3-2.2-5c-0.3-2.7-0.1-4.1-1.4-4.1c-1.6,0-2.2,1.3-2.6,2.1c-0.5,1-1.1,2-0.5,5.2
			c0.3,1.7,1.2,3.6,0.2,3.9c-0.8,0.2-1.2,0-1.8-3.2c-0.5-3.2-1.6-7.2-1.2-7.9C47.8,79.6,48.4,79.7,48.7,80z"/>
		<path fill="#FEFDF5" d="M62.1,74.7c-0.4-1.1,0.3-1.9,1-2.1c0.7-0.2,1.3,0.7,1.3,1.1c0,0.4-0.1,1.3,0.8,1.7
			c0.9,0.3,2.1,0.7,3.3,1.5c2.6,1.3,2,2.4,2.6,2.5c0.6,0,1.1-1.3,0.6-4.3c0-1.2,0.8-1.1,1.1-0.5c0.3,0.6,0.5,2.8,0.3,3.7
			c-0.1,0.9-0.7,2.1-1.3,2.7c-0.7,0.6-1.2,2.3-1.9,2.6c-0.7,0.4-1.3,1.2-2.6,0.8c-1.2-0.5-1.2-0.9-1.1-1.4c0-0.5,0.8-0.5,1.6-0.3
			c0.8,0.2,1.9-0.8,1.1-1.8c-0.1-0.7,0.1-1-0.1-1.3c-0.2-0.3-1-1.4-4.2-2.4c-0.5-0.3-0.6-0.3-0.8-0.3c-0.7,0.5,0,3,0.1,3.8
			c0.1,0.5-0.1,1.2-0.5,1.2c-0.4,0-0.6-0.2-0.9-1c-0.3-2-0.5-2.7-0.2-4.5C62.6,75.8,62.5,75.7,62.1,74.7z"/>
	</g>
</g>
</svg>
