<?xml version="1.0" encoding="utf-8"?>
<!-- Generator: Adobe Illustrator 17.1.0, SVG Export Plug-In . SVG Version: 6.00 Build 0)  -->
<!DOCTYPE svg PUBLIC "-//W3C//DTD SVG 1.1//EN" "http://www.w3.org/Graphics/SVG/1.1/DTD/svg11.dtd">
<svg version="1.1" id="Layer_1" xmlns="http://www.w3.org/2000/svg" xmlns:xlink="http://www.w3.org/1999/xlink" x="0px" y="0px"
	 viewBox="0 0 24.5 24.5" enable-background="new 0 0 24.5 24.5" xml:space="preserve">
<g>
	<path id="XMLID_89_" fill="#85C65F" d="M24.5,12.2c0,6.8-5.5,12.2-12.2,12.2C5.5,24.5,0,19,0,12.2C0,5.5,5.5,0,12.2,0
		C19,0,24.5,5.5,24.5,12.2z"/>
	<g>
		<path fill="#FFFFFF" d="M18.5,10.3c1-0.2,1-1,1-1h-2.4c-1.5-1.5-2.9-1.9-4.8-1.9c-1.9,0-3.4,0.5-4.8,1.9H5c0,0,0,0.7,1,1
			c-0.2,0.2-0.4,0.6-0.5,0.9c-0.2,0.5-0.4,1-0.4,1.5c0,2,1.4,3.4,3.4,3.4c1.1,0,2.2-0.6,2.9-1.5l1,1.5l1-1.5
			c0.7,0.8,1.8,1.5,2.9,1.5c2,0,3.4-1.4,3.4-3.4c0-0.4-0.2-1-0.4-1.4C18.9,10.9,18.7,10.6,18.5,10.3z M8.4,15.1
			C7,15.1,6,14.1,6,12.7c0-0.7,0.3-1.4,0.8-1.8c0.4-0.4,1-0.6,1.6-0.6c0.4,0,0.7,0.1,1.1,0.2c0.8,0.4,1.4,1.2,1.4,2.2
			C10.8,14.1,9.7,15.1,8.4,15.1z M12.2,14.2c0-1.4-0.6-2.8-1.6-3.7C10,9.8,9.2,9.3,8.4,9.3c0,0,1.5-1.5,3.9-1.5
			c2.4,0,3.9,1.5,3.9,1.5c-0.8,0-1.7,0.4-2.3,1.1C12.9,11.4,12.2,12.8,12.2,14.2z M16.1,15.1c-1.3,0-2.4-1.1-2.4-2.4
			c0-0.9,0.5-1.8,1.3-2.2c0.3-0.2,0.7-0.3,1.1-0.3c0.7,0,1.2,0.3,1.7,0.7c0.5,0.4,0.7,1.1,0.7,1.7C18.5,14.1,17.4,15.1,16.1,15.1z"
			/>
		<path id="XMLID_83_" fill="#FFFFFF" d="M16.1,12.2c-0.3,0-0.5,0.2-0.5,0.5c0,0.3,0.2,0.5,0.5,0.5c0.3,0,0.5-0.2,0.5-0.5
			C16.6,12.5,16.4,12.2,16.1,12.2z"/>
		<path fill="#FFFFFF" d="M16.1,11.3c-0.8,0-1.4,0.7-1.4,1.5c0,0.8,0.6,1.5,1.4,1.5c0.8,0,1.5-0.7,1.5-1.5
			C17.6,11.9,16.9,11.3,16.1,11.3z M16.1,13.7c-0.5,0-1-0.4-1-1c0-0.5,0.4-1,1-1c0.5,0,1,0.4,1,1C17.1,13.3,16.6,13.7,16.1,13.7z"/>
		<path id="XMLID_80_" fill="#FFFFFF" d="M8.4,12.2c-0.3,0-0.5,0.2-0.5,0.5c0,0.3,0.2,0.5,0.5,0.5c0.3,0,0.5-0.2,0.5-0.5
			C8.9,12.5,8.6,12.2,8.4,12.2z"/>
		<path fill="#FFFFFF" d="M8.4,11.3c-0.8,0-1.5,0.7-1.5,1.5c0,0.8,0.7,1.5,1.5,1.5c0.8,0,1.5-0.7,1.5-1.5
			C9.8,11.9,9.2,11.3,8.4,11.3z M8.4,13.7c-0.5,0-1-0.4-1-1c0-0.5,0.4-1,1-1c0.5,0,1,0.4,1,1C9.3,13.3,8.9,13.7,8.4,13.7z"/>
	</g>
</g>
</svg>
