<?xml version="1.0" encoding="utf-8"?>
<!-- Generator: Adobe Illustrator 17.1.0, SVG Export Plug-In . SVG Version: 6.00 Build 0)  -->
<!DOCTYPE svg PUBLIC "-//W3C//DTD SVG 1.1//EN" "http://www.w3.org/Graphics/SVG/1.1/DTD/svg11.dtd">
<svg version="1.1" id="Layer_1" xmlns="http://www.w3.org/2000/svg" xmlns:xlink="http://www.w3.org/1999/xlink" x="0px" y="0px"
	 viewBox="0 0 24.7 24.7" enable-background="new 0 0 24.7 24.7" xml:space="preserve">
<g>
	<path id="XMLID_11_" fill="#4D76A4" d="M24.7,12.3c0,6.8-5.5,12.3-12.3,12.3S0,19.1,0,12.3C0,5.5,5.5,0,12.3,0S24.7,5.5,24.7,12.3z
		"/>
	<path fill="#FFFFFF" d="M19.4,9c-0.2-0.2-1-0.2-1.7-0.2c-0.8,0-1.6,0-1.7,0.1c-0.2,0.1-0.5,1-1,1.9c-0.5,1-1.2,2.1-1.7,2.1
		c-0.6,0-0.4-1.7-0.4-3c0-0.8-0.1-1.1-0.2-1.2c-0.3-0.2-1.1-0.4-1.1-0.4S9.2,8.1,8.8,9.1c0.5,0.1,1.3-0.1,0.9,3.2
		c0,0.2-0.4,1.5-1.5-0.3C8,11.5,6.9,8.8,6.5,8.8C5.3,8.8,4,8.7,3.6,9c-0.4,0.2,0.5,2.1,2.1,4.6c1.3,2,2.7,3.6,5,4
		c0.4,0,1.6,0.1,2-0.1c0.3-0.1-0.1-1.9,0.8-2c0.4-0.1,1.8,1.8,2.4,2c0.3,0.1,1.1,0.2,1.8,0.2c0.8,0,1.7,0.1,1.8-0.5
		c0.2-1.2-2.4-2.8-2.5-3.6c-0.1-0.5,1-1.5,1.5-2.3C19.2,10.4,19.9,9.3,19.4,9z"/>
</g>
</svg>
